<svg width="20" height="20" viewBox="0 0 20 20" fill="none" xmlns="http://www.w3.org/2000/svg">
<g clip-path="url(#clip0_1_178)">
<path d="M4.58342 4.16666H15.4168C15.5368 4.20875 15.6456 4.27776 15.7348 4.36838C15.824 4.45901 15.8913 4.56886 15.9315 4.68952C15.9718 4.81017 15.9838 4.93843 15.9668 5.06447C15.9498 5.19051 15.9042 5.31098 15.8334 5.41666L11.6668 10V15.8333L8.33342 13.3333V10L4.16676 5.41666C4.096 5.31098 4.05037 5.19051 4.03336 5.06447C4.01636 4.93843 4.02842 4.81017 4.06864 4.68952C4.10886 4.56886 4.17616 4.45901 4.26539 4.36838C4.35462 4.27776 4.46341 4.20875 4.58342 4.16666Z" stroke="#101828" stroke-width="1.67" stroke-linecap="round" stroke-linejoin="round"/>
</g>
<defs>
<clipPath id="clip0_1_178">
<rect width="20" height="20" fill="white"/>
</clipPath>
</defs>
</svg>
